<?xml version="1.0" encoding="UTF-8"?>
<svg version="1.1" xmlns="http://www.w3.org/2000/svg" width="326" height="327">
<path d="M0 0 C107.58 0 215.16 0 326 0 C326 107.91 326 215.82 326 327 C218.42 327 110.84 327 0 327 C0 219.09 0 111.18 0 0 Z " fill="#FEFEFE" transform="translate(0,0)"/>
<path d="M0 0 C3.70056023 0.08173911 7.40128169 0.08893934 11.10260534 0.1043303 C18.09820525 0.1446026 25.09113745 0.25108464 32.08556688 0.38187367 C40.05382962 0.52761052 48.0222256 0.59876224 55.99149108 0.66391432 C72.37238173 0.7994926 88.7505952 1.02787407 105.12949133 1.31812119 C104.17666329 2.43958694 103.22243259 3.55986105 102.26761389 4.67963243 C101.73637789 5.30361295 101.20514189 5.92759347 100.65780783 6.57048249 C98.84513067 8.64328924 96.92121327 10.53239339 94.89511633 12.39624619 C94.15648352 13.08202744 93.4178507 13.76780869 92.65683508 14.47437119 C91.90531164 15.16530869 91.1537882 15.85624619 90.37949133 16.56812119 C88.8613033 17.96638512 87.34556503 19.36731489 85.83261633 20.77124619 C85.16907141 21.38129502 84.50552649 21.99134385 83.82187414 22.61987901 C81.9269604 24.41129453 81.9269604 24.41129453 80.12949133 27.31812119 C77.28981025 27.59711573 74.66780707 27.6827023 71.82773352 27.63941026 C70.96901144 27.63835786 70.11028936 27.63730546 69.22554541 27.63622117 C67.35666948 27.63260737 65.48779759 27.62243203 63.61898565 27.60655046 C60.65971857 27.58361718 57.70119984 27.58241649 54.74185705 27.58783555 C46.32677272 27.60053267 37.91208074 27.58355458 29.49716711 27.52759385 C24.35284358 27.49492261 19.20944093 27.49619124 14.06507635 27.51861405 C12.10507814 27.52036215 10.1450231 27.50909366 8.18517828 27.48451066 C5.43868796 27.45089178 2.69538807 27.46035562 -0.05117273 27.47925401 C-1.26242571 27.44846002 -1.26242571 27.44846002 -2.49814844 27.41704392 C-5.98013737 27.48029871 -8.04798237 27.61101209 -10.74849176 29.932585 C-12.24681718 31.66797749 -13.59836326 33.412326 -14.87050867 35.31812119 C-13.67025617 37.85919631 -12.5376365 39.72931623 -10.74550867 41.94312119 C-8.87050867 44.31812119 -8.87050867 44.31812119 -8.87050867 46.31812119 C-7.78659845 46.27592957 -6.70268824 46.23373796 -5.58593225 46.1902678 C4.68018901 45.80339308 14.94481565 45.51951684 25.21659803 45.33368993 C30.49699014 45.23492288 35.77145676 45.10128781 41.04843664 44.88477159 C78.07757232 43.40433918 78.07757232 43.40433918 85.8829093 50.37061143 C89.10827934 54.22880905 91.22272177 58.29901244 93.07282019 62.95397019 C94.75753708 66.72328401 97.31879595 69.65874692 100.00449133 72.75562119 C104.12949133 77.84223695 104.12949133 77.84223695 104.12949133 82.31812119 C103.00302649 84.31006455 103.00302649 84.31006455 101.41855383 86.40796494 C100.83742834 87.18671983 100.25630285 87.96547471 99.6575675 88.76782823 C99.02955236 89.58879991 98.40153723 90.40977159 97.75449133 91.25562119 C97.12196447 92.09721787 96.48943762 92.93881455 95.83774328 93.80591416 C93.94522644 96.31794372 92.03940182 98.81930055 90.12949133 101.31812119 C89.32342443 102.37845567 89.32342443 102.37845567 88.50107336 103.46021104 C80.61652452 113.831088 80.61652452 113.831088 79.12949133 115.31812119 C77.42123445 115.41434156 75.70897019 115.43999748 73.99800634 115.43837571 C72.88596334 115.43975038 71.77392035 115.44112504 70.62817907 115.44254136 C69.39747686 115.43894608 68.16677465 115.43535081 66.89877844 115.43164659 C65.6111611 115.43179261 64.32354376 115.43193864 62.99690771 115.43208909 C59.45574373 115.43237705 55.91461334 115.42648056 52.37345719 115.41951513 C48.67654145 115.41328136 44.97962502 115.41267778 41.28270483 115.41148973 C34.27745234 115.40837648 27.27221538 115.40016318 20.26696974 115.39014024 C12.29370257 115.37897889 4.32043468 115.3734686 -3.65283835 115.3684448 C-20.05873756 115.35798056 -36.46462114 115.34038125 -52.87050867 115.31812119 C-52.47161055 114.86593626 -52.07271242 114.41375133 -51.66172647 113.94786382 C-48.80197746 110.66684392 -46.20987758 107.45077323 -43.92031336 103.73877549 C-38.85715662 96.64224314 -33.24950857 90.86962029 -24.34926844 89.37677598 C-12.05887993 87.93275904 0.47325101 88.58576665 12.80917883 89.02661729 C20.89365702 89.30047127 28.98095873 89.42776555 37.06910467 89.5335505 C39.87992112 89.58677301 42.6853744 89.69077214 45.49442053 89.80196214 C47.21486891 89.84230096 48.93534777 89.88136649 50.65585852 89.91895127 C51.42887304 89.96304627 52.20188757 90.00714128 52.99832678 90.05257249 C56.35162116 90.08958209 58.32608058 89.97369918 60.97962713 87.80842233 C64.20989273 84.26686863 64.20989273 84.26686863 65.31699133 79.75562119 C63.71129515 76.45971851 61.98874069 73.62878732 59.12949133 71.31812119 C56.03784645 70.80521526 53.7709252 70.67226071 50.70590734 70.83081651 C49.8693511 70.84910005 49.03279486 70.86738358 48.17088842 70.88622117 C46.3574348 70.92795975 44.54424252 70.98261624 42.7315135 71.04871964 C39.84935509 71.14741189 36.97009258 71.19804563 34.08650732 71.23407578 C25.89145411 71.34019715 17.69971372 71.49276841 9.50864172 71.7736876 C-26.91420824 72.96991314 -26.91420824 72.96991314 -34.55312586 66.52954698 C-37.74757032 62.92175638 -39.88192677 59.10005154 -41.76058435 54.68265367 C-43.6714692 50.61179117 -46.49122688 47.22184034 -49.24550867 43.69312119 C-50.15447345 42.4548205 -51.05866381 41.21299057 -51.95644617 39.96655869 C-52.5880868 39.09257432 -53.21972742 38.21858994 -53.87050867 37.31812119 C-52.49086606 34.37732572 -50.89546943 31.83753751 -48.96425867 29.22827744 C-48.38418055 28.44259385 -47.80410242 27.65691026 -47.20644617 26.84741807 C-46.6005868 26.0333751 -45.99472742 25.21933213 -45.37050867 24.38062119 C-44.7955868 23.60138291 -44.22066492 22.82214463 -43.62832117 22.01929307 C-42.4311066 20.4025306 -41.20562678 18.80633837 -39.95360804 17.23163438 C-37.76556363 14.3665234 -37.76556363 14.3665234 -36.35259485 11.00287461 C-28.76687547 -3.07933266 -14.09715233 -0.36415916 0 0 Z " fill="#0D5EAC" transform="translate(60.870508670806885,103.68187880516052)"/>
<path d="M0 0 C0 35.97 0 71.94 0 109 C32.01 109 64.02 109 97 109 C95.02 111.31 93.04 113.62 91 116 C89.78807824 117.51851824 88.57751207 119.03812041 87.368927 120.55929565 C80.72206065 128.42341952 74.79768384 134.75962237 64.18043327 135.91163826 C58.63992588 136.14438328 53.15498131 135.98917563 47.6171875 135.7578125 C45.22162536 135.72415808 42.82593765 135.6985746 40.4302063 135.68063354 C34.18298452 135.61253226 27.94353211 135.43633926 21.69934082 135.23596191 C15.30453594 135.05041888 8.90845055 134.9693234 2.51171875 134.87890625 C-9.99556565 134.68698141 -22.49713219 134.38060086 -35 134 C-35.5157479 119.36278203 -35.90271758 104.726776 -36.13986778 90.08229542 C-36.25295896 83.28068348 -36.40681737 76.48473786 -36.65966797 69.68676758 C-36.90384597 63.11878543 -37.03044407 56.55445853 -37.08729935 49.98215294 C-37.12777687 47.48277106 -37.20684671 44.9836912 -37.32606125 42.48682594 C-38.05457341 26.58776627 -38.05457341 26.58776627 -35 20 C-29.68786211 14.2863463 -22.70587782 11.14367679 -15.62060928 8.14603233 C-12.10102927 6.60686641 -8.94900357 4.71185787 -5.6875 2.6875 C-1.12590799 0 -1.12590799 0 0 0 Z " fill="#F58221" transform="translate(221,85)"/>
<path d="M0 0 C7.51350866 5.86000763 12.55994464 13.32713731 14.21875 22.73046875 C15.33374737 36.21911411 14.2581279 48.16801956 9.21875 60.73046875 C8.22875 60.73046875 7.23875 60.73046875 6.21875 60.73046875 C6.24493408 59.99521973 6.27111816 59.2599707 6.2980957 58.50244141 C6.40303912 55.12034097 6.4673832 51.73858441 6.53125 48.35546875 C6.57314453 47.19917969 6.61503906 46.04289062 6.65820312 44.8515625 C6.77969798 36.24972667 5.35817557 29.61177919 -0.30419922 22.93457031 C-7.89983424 15.72885495 -17.27395346 14.01752148 -27.40625 14.16796875 C-28.45876953 14.17892578 -29.51128906 14.18988281 -30.59570312 14.20117188 C-39.7086658 14.45198736 -47.46473579 16.0582417 -55.78125 19.73046875 C-56.4402832 20.01986328 -57.09931641 20.30925781 -57.77832031 20.60742188 C-71.57580779 26.82321968 -84.2706971 34.90713044 -95.78125 44.73046875 C-97.18503906 45.89835937 -97.18503906 45.89835937 -98.6171875 47.08984375 C-99.53757813 47.87875 -100.45796875 48.66765625 -101.40625 49.48046875 C-102.66308594 50.55554688 -102.66308594 50.55554688 -103.9453125 51.65234375 C-106.22264161 53.76792761 -106.22264161 53.76792761 -105.78125 57.73046875 C-103.80617102 59.67646932 -103.80617102 59.67646932 -101.28125 61.35546875 C-99.75009038 62.43767724 -98.24141358 63.55422587 -96.78125 64.73046875 C-96.78125 65.39046875 -96.78125 66.05046875 -96.78125 66.73046875 C-97.72218506 66.92157227 -98.66312012 67.11267578 -99.63256836 67.30957031 C-103.99529137 68.19663453 -108.3571211 69.08804221 -112.71875 69.98046875 C-113.49835083 70.13975861 -114.27795166 70.29904846 -115.08117676 70.46316528 C-124.99417463 72.49173394 -134.86835996 74.58757098 -144.671875 77.1015625 C-147.79533392 77.73331738 -150.60394475 77.85082122 -153.78125 77.73046875 C-152.13227994 68.91940585 -149.11030291 60.6045278 -146.15625 52.16796875 C-145.63495978 50.66747636 -145.11412262 49.16682649 -144.59375 47.66601562 C-143.32813478 44.01899604 -142.05640038 40.37416482 -140.78125 36.73046875 C-135.68929202 36.73046875 -133.93651886 38.54301401 -130 41.515625 C-127.91845019 42.88871992 -127.91845019 42.88871992 -125.8359375 42.71875 C-122.82656333 41.27127535 -120.8034081 39.17381618 -118.40625 36.85546875 C-90.70328839 10.71372065 -38.32393453 -25.19674267 0 0 Z " fill="#0E5FAD" transform="translate(209.78125,23.26953125)"/>
<path d="M0 0 C1.32 0 2.64 0 4 0 C3.84144531 0.96679688 3.68289062 1.93359375 3.51953125 2.9296875 C1.58513973 16.61129855 1.61270935 31.74235623 9.8125 43.4375 C15.94605689 50.73935344 23.35431027 56.59579755 33 58 C46.14659616 58.97579529 57.83707312 58.19643996 70 53 C70.66870117 52.71592285 71.33740234 52.4318457 72.02636719 52.13916016 C86.33903755 45.87863934 97.64898809 36.60794341 109 26 C107.57708742 22.54007572 105.94036907 20.97351431 102.875 18.875 C100.6796875 17.3671875 100.6796875 17.3671875 99 16 C99 15.34 99 14.68 99 14 C101.18358769 13.53642979 103.36718318 13.0728963 105.55078125 12.609375 C106.23256943 12.46462234 106.9143576 12.31986969 107.61680603 12.17073059 C111.36833086 11.37436838 115.1200352 10.57886685 118.87207031 9.78491211 C125.33286438 8.41736046 131.79338098 7.04984666 138.24609375 5.64453125 C139.11258545 5.45729492 139.97907715 5.27005859 140.87182617 5.07714844 C142.40804754 4.74470263 143.94343859 4.40838565 145.4777832 4.06738281 C149.06426011 3.29569088 152.34048969 2.93697249 156 3 C153.69427537 12.28334822 150.55093541 21.20107536 147.3125 30.1875 C146.79584618 31.63072419 146.27956755 33.07408275 145.76367188 34.51757812 C144.51342785 38.01327549 143.2581456 41.50713753 142 45 C137.96489727 43.44800564 135.1371283 41.68320883 131.84375 38.92578125 C129.9729725 37.79723781 129.9729725 37.79723781 127.515625 38.12109375 C124.50560895 39.17272979 123.35324468 40.36864032 121.25 42.75 C101.90588371 62.92957646 72.73814771 80.32560268 44.27270508 81.54296875 C30.61977626 81.66712861 19.34168563 77.67425966 9.25 68.5 C8.13625 67.2625 8.13625 67.2625 7 66 C6.175 65.113125 5.35 64.22625 4.5 63.3125 C-5.47430457 50.9783442 -6.33416579 35.22448062 -5 20 C-3.93937728 13.19534573 -2.17640386 6.52921158 0 0 Z " fill="#F58323" transform="translate(67,223)"/>
</svg>
